<?xml version="1.0" encoding="UTF-8" standalone="no"?><!DOCTYPE svg PUBLIC "-//W3C//DTD SVG 1.1//EN" "http://www.w3.org/Graphics/SVG/1.1/DTD/svg11.dtd"><svg width="100%" height="100%" viewBox="0 0 5201 3868" version="1.1" xmlns="http://www.w3.org/2000/svg" xmlns:xlink="http://www.w3.org/1999/xlink" xml:space="preserve" xmlns:serif="http://www.serif.com/" style="fill-rule:evenodd;clip-rule:evenodd;stroke-linejoin:round;stroke-miterlimit:2;"><path d="M1618.305,1770.444l-396.733,-957.794c-0.711,-1.489 -1.394,-3.017 -2.039,-4.556c-19.861,-47.828 2.817,-102.7 50.644,-122.561c208.894,-86.672 427.856,-153.689 654.544,-198.683c220.867,-43.844 448.994,-66.856 682.194,-66.856c233.217,0 461.344,23.011 682.228,66.861c226.706,45 445.667,112.028 654.567,198.7l-0.056,0.133c47.617,19.767 70.311,74.344 50.694,122.067l-253.594,612.256l0,604.55c0,47.744 -19.472,91.1 -50.828,122.461c-31.361,31.356 -74.694,50.828 -122.456,50.828c-47.761,0 -91.1,-19.467 -122.461,-50.828c-1.283,-1.278 -2.533,-2.589 -3.778,-3.906l-209.022,504.622l0,381.9c0,39.311 -14.733,75.411 -38.95,103.033c-2.194,2.75 -4.556,5.417 -7.106,7.972c-28.417,28.417 -67.717,46.061 -111,46.061c-21.644,0 -42.283,-4.411 -61.067,-12.372l-240.578,580.806l-0.061,-0.022c-0.561,1.356 -1.144,2.711 -1.778,4.061c-22.094,47.244 -57.761,78.861 -98.039,95.406c-23.078,9.483 -47.544,13.861 -71.817,13.278c-24.317,-0.589 -48.439,-6.178 -70.794,-16.633c-38.867,-18.183 -71.922,-50.517 -90.628,-96.083l-580.033,-1400.317c-24.511,15.844 -53.717,25.061 -84.989,25.061c-43.306,0 -82.583,-17.644 -111,-46.061l0.189,-0.189c-28.539,-28.611 -46.25,-67.856 -46.25,-110.811l0,-452.383l-0.006,0Zm-189.283,-946.322l369.828,892.844c4.789,11.661 7.056,23.728 7.05,35.594l0.289,0l0,216.528c10.072,-3.683 20.956,-5.694 32.3,-5.694c41.906,0 77.406,27.456 89.5,65.35l678.961,1639.161l318.478,-768.872c19.206,-46.728 71.878,-69.594 118.894,-52.283l0,-216.883c0,-15.506 3.767,-30.133 10.417,-43.028l346.778,-837.189c19.656,-47.828 74.372,-70.661 122.2,-51.006c11.144,4.583 20.933,11.072 29.144,18.933l0,-315.439c0,-15.511 3.767,-30.133 10.417,-43.028l221.589,-534.961c-170.789,-65.222 -348.467,-116.717 -531.683,-153.083c-208.744,-41.433 -424.833,-63.183 -646.267,-63.183c-221.428,0 -437.506,21.75 -646.233,63.178c-183.217,36.367 -360.889,87.85 -531.661,153.061Z" style="fill:#4e5161;fill-rule:nonzero;"/><path d="M1306.138,772.133l406.106,980.433l0,470.261c0,34.728 28.394,63.122 63.122,63.122c34.722,0 63.117,-28.394 63.117,-63.122l0,-165.489l688.511,1662.211c29.189,71.044 124.85,74.961 159.911,0l325.128,-784.922l0,95.022c0,34.728 28.394,63.117 63.122,63.117c34.722,0 63.117,-28.389 63.117,-63.117l0,-399.783l349.85,-844.622l0,239.322c0,43.656 35.7,79.35 79.35,79.35c43.639,0 79.339,-35.694 79.339,-79.35l0,-622.433l260.944,-629.978c-400.733,-166.267 -840.039,-258.222 -1300.833,-258.222c-460.783,0 -900.078,91.956 -1300.783,258.2" style="fill:#f3ad6b;"/><path d="M2698.655,3691.189l313.372,-756.567l0,95.022c0,34.728 28.394,63.117 63.122,63.117c34.722,0 63.117,-28.389 63.117,-63.117l0,-399.783l349.85,-844.622l0,239.322c0,43.656 35.7,79.35 79.35,79.35c43.639,0 79.339,-35.694 79.339,-79.35l0,-622.428l260.944,-629.978c-400.733,-166.267 -840.039,-258.222 -1300.833,-258.222c-393.483,0 -771.289,67.061 -1122.783,190.172c4.044,28.289 8.222,56.75 12.65,85.522l1201.872,2901.561Z" style="fill:#fac373;"/><path d="M2600.011,0c495.311,0 991.067,96.372 1457.306,289.094c8.5,3.206 16.678,7.7 24.244,13.544c79.539,61.344 119.872,142.811 128.783,225.672c6.267,58.317 -3.489,117.111 -26.406,169.706c-23.117,53.078 -59.717,100.083 -106.889,134.317c-63.456,46.039 -144.967,69.089 -237.55,53.272c-7.767,-1.05 -15.528,-3.094 -23.106,-6.211c-388.094,-160.75 -802.039,-241.128 -1216.383,-241.128c-414.35,0 -828.3,80.378 -1216.389,241.133l-0.017,-0.044c-6.028,2.472 -12.4,4.35 -19.067,5.544c-94.233,17.183 -177.206,-5.85 -241.572,-52.561c-47.178,-34.239 -83.772,-81.25 -106.894,-134.317c-22.911,-52.6 -32.661,-111.389 -26.4,-169.706c8.9,-82.861 49.239,-164.328 128.783,-225.672l0.006,0.006c6.472,-4.994 13.711,-9.228 21.644,-12.483c466.994,-193.444 963.672,-290.167 1459.906,-290.167m1375.722,458.039c-439.611,-180.094 -907.461,-270.156 -1375.722,-270.156c-468.261,0 -936.117,90.061 -1375.722,270.15c-29.589,26.067 -44.761,58.072 -48.206,90.083c-2.767,25.722 1.567,51.722 11.722,75.033c9.95,22.839 25.456,42.894 45.244,57.256c23.494,17.05 54,25.989 89.428,21.65c408.794,-167.772 843.372,-251.683 1277.533,-251.683c434.15,0 868.733,83.911 1277.528,251.683c35.428,4.339 65.928,-4.6 89.428,-21.65c19.794,-14.361 35.294,-34.417 45.239,-57.256c10.156,-23.311 14.483,-49.317 11.728,-75.033c-3.433,-32.006 -18.617,-64.011 -48.2,-90.078Z" style="fill:#4e5161;fill-rule:nonzero;"/><path d="M4024.322,376.761c-910.389,-377.089 -1938.233,-377.089 -2848.617,0c-194.311,149.861 -63.772,459.078 172.328,416.033c799.817,-331.3 1704.144,-331.3 2503.961,0c236.094,43.05 366.633,-266.167 172.328,-416.033" style="fill:#f3ad6b;"/><path d="M1185.277,761.394c43.878,29.172 99.517,42.933 162.744,31.4c799.817,-331.289 1704.144,-331.289 2503.967,0c65.794,12 123.378,-3.383 168.028,-35.028c-883.278,-402.661 -1888.306,-431.2 -2834.739,3.628" style="fill:#e1a068;"/><path d="M1838.488,2222.822l0,-296.944c0,-25.944 21.033,-46.978 46.978,-46.978c25.939,0 46.972,21.033 46.972,46.978l0,401.961l-93.95,-105.017Z" style="fill:#262b2c;fill-rule:nonzero;"/><path d="M3488.116,1940.878l0,-270.272c0,-25.939 -21.028,-46.972 -46.972,-46.972c-25.939,0 -46.972,21.033 -46.972,46.972l0,375.289l93.944,-105.017Z" style="fill:#262b2c;fill-rule:nonzero;"/><path d="M3012.027,3029.644l0,-243.606c0,-25.939 -21.028,-46.972 -46.972,-46.972c-25.944,0 -46.972,21.033 -46.972,46.972l0,415.906l93.944,-172.3Z" style="fill:#4e5161;fill-rule:nonzero;"/><path d="M2501.805,885.683c25.772,0 46.678,20.9 46.678,46.678c0,25.772 -20.906,46.672 -46.678,46.672c-25.772,0 -46.672,-20.9 -46.672,-46.672c0,-25.778 20.906,-46.678 46.672,-46.678" style="fill:#f9d9a1;"/><path d="M2661.838,1205.744c33.139,0 60.011,26.872 60.011,60.011c0,33.133 -26.872,60.011 -60.011,60.011c-33.139,0 -60.017,-26.872 -60.017,-60.011c0,-33.139 26.878,-60.011 60.017,-60.011" style="fill:#f9d9a1;"/><path d="M2111.733,1652.494c33.133,0 60.011,26.872 60.011,60.011c0,33.133 -26.872,60.011 -60.011,60.011c-33.139,0 -60.011,-26.872 -60.011,-60.011c0.006,-33.139 26.872,-60.011 60.011,-60.011" style="fill:#f9d9a1;"/><path d="M3005.233,1715.839c33.139,0 60.011,26.872 60.011,60.011c0,33.139 -26.872,60.011 -60.011,60.011c-33.139,0 -60.011,-26.872 -60.011,-60.011c0.006,-33.139 26.878,-60.011 60.011,-60.011" style="fill:#f9d9a1;"/><path d="M2912.122,2480.322c33.139,0 60.017,26.872 60.017,60.017c0,33.133 -26.878,60.011 -60.017,60.011c-33.133,0 -60.011,-26.878 -60.011,-60.011c0,-33.139 26.878,-60.017 60.011,-60.017" style="fill:#f9d9a1;"/><path d="M2440.961,2609.339c28.078,0 50.844,22.772 50.844,50.839c0,28.078 -22.767,50.839 -50.844,50.839c-28.072,0 -50.839,-22.767 -50.839,-50.839c0,-28.067 22.767,-50.839 50.839,-50.839" style="fill:#f9d9a1;"/><path d="M2928.555,725.656c33.139,0 60.011,26.872 60.011,60.011c0,33.133 -26.872,60.011 -60.011,60.011c-33.139,0 -60.011,-26.872 -60.011,-60.011c0,-33.139 26.872,-60.011 60.011,-60.011" style="fill:#f9d9a1;"/><path d="M2453.466,1505.8c21.167,0 38.339,17.167 38.339,38.339c0,21.172 -17.172,38.339 -38.339,38.339c-21.172,0 -38.339,-17.167 -38.339,-38.339c-0.006,-21.172 17.167,-38.339 38.339,-38.339" style="fill:#f9d9a1;"/><path d="M3239.083,284.811c-20.344,-3.644 -33.883,-23.106 -30.239,-43.45c3.644,-20.344 23.106,-33.883 43.45,-30.239c78.967,14.122 156.972,30.361 233.833,49.028c76.867,18.656 153.167,39.889 228.778,64.006c19.694,6.239 30.606,27.272 24.367,46.972c-6.233,19.694 -27.272,30.6 -46.967,24.361c-73.289,-23.378 -147.956,-44.133 -223.789,-62.539c-75.856,-18.411 -152.361,-34.35 -229.433,-48.139m569.956,150.65c-19.456,-7.05 -29.511,-28.544 -22.461,-48c7.056,-19.456 28.55,-29.511 48.006,-22.461c18.878,6.9 38.267,14.228 58.139,21.972c20.828,8.111 40.006,15.806 57.489,23.061c19.128,7.939 28.189,29.889 20.256,49.022c-7.944,19.128 -29.894,28.194 -49.022,20.256c-20.094,-8.333 -38.672,-15.833 -55.722,-22.472c-18.25,-7.111 -37.161,-14.244 -56.683,-21.378Z" style="fill:#fff;fill-rule:nonzero;"/><path d="M3576.105,1873.756c0,-15.561 12.622,-28.183 28.183,-28.183c15.561,0 28.183,12.622 28.183,28.183l0,156.194c0,15.561 -12.622,28.183 -28.183,28.183c-15.561,0 -28.183,-12.622 -28.183,-28.183l0,-156.194Z" style="fill:#fff;fill-rule:nonzero;"/><path d="M3065.244,2879.278c0,-15.567 12.622,-28.183 28.183,-28.183c15.567,0 28.183,12.617 28.183,28.183l0,156.194c0,15.561 -12.617,28.183 -28.183,28.183c-15.561,0 -28.183,-12.622 -28.183,-28.183l0,-156.194Z" style="fill:#fff;fill-rule:nonzero;"/><path d="M1763.777,2069.95c0,-15.561 12.622,-28.183 28.183,-28.183c15.561,0 28.183,12.622 28.183,28.183l0,156.194c0,15.561 -12.622,28.183 -28.183,28.183c-15.561,0 -28.183,-12.622 -28.183,-28.183l0,-156.194Z" style="fill:#fff;fill-rule:nonzero;"/><path d="M2308.822,1844.267c68.667,-68.667 163.539,-111.156 268.283,-111.156c104.75,0 199.622,42.483 268.289,111.156c68.667,68.672 111.161,163.533 111.161,268.289c0,104.75 -42.489,199.622 -111.161,268.289c-68.667,68.667 -163.539,111.156 -268.289,111.156c-104.75,0 -199.617,-42.483 -268.283,-111.156c-68.672,-68.667 -111.156,-163.539 -111.156,-268.289c0,-104.75 42.483,-199.617 111.156,-268.289m268.283,76.728c-52.894,0 -100.789,21.444 -135.45,56.111c-34.661,34.661 -56.106,82.561 -56.106,135.45c0,52.889 21.444,100.794 56.106,135.45c34.661,34.661 82.556,56.111 135.45,56.111c52.894,0 100.794,-21.444 135.456,-56.111c34.656,-34.656 56.111,-82.556 56.111,-135.45c0,-52.894 -21.45,-100.789 -56.111,-135.45c-34.656,-34.667 -82.561,-56.111 -135.456,-56.111Z" style="fill:#262b2c;fill-rule:nonzero;"/><path d="M2577.105,1827.056c-157.65,0 -285.5,127.85 -285.5,285.5c0,157.644 127.85,285.5 285.5,285.5c157.65,0 285.506,-127.856 285.506,-285.5c0,-157.656 -127.856,-285.5 -285.506,-285.5" style="fill:#d46555;"/><path d="M2610.444,2396.1c141.95,-16.522 252.167,-137.178 252.167,-283.55c0,-146.367 -110.217,-267.028 -252.167,-283.55c-141.939,16.522 -252.156,137.183 -252.156,283.55c0,146.372 110.217,267.033 252.156,283.55" style="fill:#e76b56;"/><path d="M2464.466,2022.428c17.444,0 31.594,14.144 31.594,31.589c0,17.444 -14.144,31.594 -31.594,31.594c-17.444,0 -31.589,-14.144 -31.589,-31.594c0.006,-17.444 14.144,-31.589 31.589,-31.589m78.35,70.017c17.444,0 31.594,14.144 31.594,31.583c0,17.45 -14.144,31.594 -31.594,31.594c-17.444,0 -31.589,-14.144 -31.589,-31.594c0,-17.439 14.144,-31.583 31.589,-31.583Zm11.767,-164.094c25.672,0 46.5,20.828 46.5,46.506c0,25.672 -20.822,46.494 -46.5,46.494c-25.678,0 -46.5,-20.822 -46.5,-46.494c0,-25.683 20.822,-46.506 46.5,-46.506Z" style="fill:#d46555;"/><path d="M2762.694,2186.317c0,-15.506 12.572,-28.072 28.078,-28.072c15.5,0 28.072,12.572 28.072,28.072c-0.006,4.044 -11.95,41.2 -38.744,76.778c-14.011,18.617 -32.217,38.356 -54.956,55.328c-4.744,3.539 -10.106,7.217 -16.117,10.994c-5.811,3.65 -11.444,6.928 -16.811,9.722c-13.794,7.172 -30.806,1.794 -37.978,-12c-7.172,-13.794 -1.8,-30.806 12,-37.978c4.9,-2.556 9.167,-4.989 12.85,-7.306c3.9,-2.45 8.056,-5.344 12.383,-8.572c18.267,-13.633 32.711,-29.25 43.717,-43.872c19.039,-25.283 27.506,-42.056 27.506,-43.094" style="fill:#fff;fill-rule:nonzero;"/><path d="M2904.533,1004.228c68.661,-68.667 163.539,-111.156 268.278,-111.156c104.756,0 199.628,42.489 268.3,111.156c68.661,68.672 111.15,163.533 111.15,268.289c0,104.756 -42.489,199.617 -111.15,268.289c-68.672,68.667 -163.544,111.156 -268.3,111.156c-104.744,0 -199.617,-42.489 -268.278,-111.156c-68.672,-68.672 -111.161,-163.544 -111.161,-268.289c0.006,-104.75 42.489,-199.617 111.161,-268.289m268.278,76.728c-52.883,0 -100.783,21.444 -135.444,56.111c-34.656,34.661 -56.111,82.561 -56.111,135.45c0,52.889 21.45,100.789 56.111,135.45c34.661,34.661 82.556,56.106 135.444,56.106c52.894,0 100.794,-21.444 135.461,-56.106c34.65,-34.661 56.111,-82.556 56.111,-135.45c0,-52.889 -21.456,-100.794 -56.111,-135.45c-34.661,-34.667 -82.561,-56.111 -135.461,-56.111Z" style="fill:#4e5161;fill-rule:nonzero;"/><path d="M3172.816,987.011c-157.65,0 -285.5,127.85 -285.5,285.506c0,157.65 127.85,285.5 285.5,285.5c157.65,0 285.506,-127.85 285.506,-285.5c0,-157.656 -127.856,-285.506 -285.506,-285.506" style="fill:#b75e54;"/><path d="M3206.155,1556.067c141.95,-16.522 252.167,-137.183 252.167,-283.55c0,-146.372 -110.217,-267.033 -252.167,-283.556c-141.939,16.522 -252.161,137.183 -252.161,283.556c0.006,146.361 110.228,267.028 252.161,283.55" style="fill:#d5675a;"/><path d="M3060.183,1182.389c17.444,0 31.594,14.144 31.594,31.589c0,17.444 -14.15,31.589 -31.594,31.589c-17.444,0 -31.594,-14.144 -31.594,-31.589c0,-17.444 14.15,-31.589 31.594,-31.589m78.35,70.011c17.45,0 31.589,14.15 31.589,31.589c0,17.45 -14.144,31.589 -31.589,31.589c-17.444,0 -31.589,-14.144 -31.589,-31.589c0,-17.439 14.144,-31.589 31.589,-31.589Zm11.761,-164.089c25.678,0 46.5,20.828 46.5,46.5c0,25.678 -20.822,46.5 -46.5,46.5c-25.672,0 -46.5,-20.828 -46.5,-46.5c0,-25.678 20.828,-46.5 46.5,-46.5Z" style="fill:#d96e62;"/><path d="M3358.411,1346.278c0,-15.5 12.572,-28.072 28.072,-28.072c15.506,0 28.078,12.567 28.078,28.072c-0.006,4.044 -11.95,41.2 -38.744,76.772c-14.006,18.622 -32.217,38.361 -54.956,55.333c-4.744,3.539 -10.111,7.217 -16.117,10.994c-5.811,3.656 -11.45,6.928 -16.811,9.722c-13.794,7.178 -30.806,1.8 -37.978,-12c-7.172,-13.8 -1.8,-30.806 12,-37.983c4.9,-2.55 9.167,-4.989 12.856,-7.3c3.894,-2.45 8.044,-5.339 12.372,-8.572c18.267,-13.639 32.711,-29.25 43.717,-43.878c19.033,-25.283 27.511,-42.05 27.511,-43.089" style="fill:#fff;fill-rule:nonzero;"/><path d="M1733.016,913.656c68.667,-68.661 163.533,-111.156 268.283,-111.156c104.756,0 199.622,42.483 268.294,111.156c68.667,68.672 111.156,163.533 111.156,268.289c0,104.756 -42.489,199.617 -111.156,268.289c-68.672,68.672 -163.539,111.156 -268.294,111.156c-104.75,0 -199.617,-42.489 -268.283,-111.156c-68.672,-68.672 -111.156,-163.544 -111.156,-268.289c0,-104.744 42.483,-199.617 111.156,-268.289m268.283,76.728c-52.889,0 -100.789,21.444 -135.444,56.106c-34.661,34.661 -56.111,82.561 -56.111,135.45c0,52.889 21.444,100.794 56.111,135.45c34.661,34.661 82.556,56.106 135.444,56.106c52.894,0 100.794,-21.444 135.456,-56.106c34.656,-34.661 56.111,-82.556 56.111,-135.45c0,-52.894 -21.45,-100.794 -56.111,-135.45c-34.661,-34.661 -82.561,-56.106 -135.456,-56.106Z" style="fill:#4e5161;fill-rule:nonzero;"/><path d="M2001.299,896.439c-157.65,0 -285.5,127.85 -285.5,285.506c0,157.644 127.85,285.5 285.5,285.5c157.65,0 285.5,-127.856 285.5,-285.5c0.006,-157.65 -127.85,-285.506 -285.5,-285.506" style="fill:#b75e54;"/><path d="M2034.638,1465.494c141.95,-16.522 252.167,-137.183 252.167,-283.556c0,-146.367 -110.217,-267.028 -252.167,-283.556c-141.939,16.522 -252.156,137.183 -252.156,283.556c-0,146.372 110.217,267.033 252.156,283.556" style="fill:#d5675a;"/><path d="M1888.661,1091.817c17.45,0 31.594,14.144 31.594,31.589c0,17.45 -14.144,31.594 -31.594,31.594c-17.439,0 -31.589,-14.144 -31.589,-31.594c0,-17.444 14.15,-31.589 31.589,-31.589m78.35,70.017c17.45,0 31.594,14.144 31.594,31.589c0,17.45 -14.144,31.589 -31.594,31.589c-17.444,0 -31.589,-14.144 -31.589,-31.589c0,-17.444 14.144,-31.589 31.589,-31.589Zm11.767,-164.094c25.678,0 46.5,20.822 46.5,46.494c0,25.678 -20.822,46.5 -46.5,46.5c-25.672,0 -46.5,-20.822 -46.5,-46.5c0,-25.672 20.822,-46.494 46.5,-46.494Z" style="fill:#d96e62;"/><path d="M2186.894,1255.706c0,-15.5 12.572,-28.072 28.072,-28.072c15.5,0 28.072,12.572 28.072,28.072c-0.006,4.044 -11.95,41.2 -38.739,76.778c-14.011,18.617 -32.217,38.356 -54.956,55.333c-4.739,3.539 -10.111,7.217 -16.117,10.994c-5.811,3.656 -11.444,6.928 -16.817,9.722c-13.794,7.178 -30.8,1.8 -37.972,-12c-7.178,-13.8 -1.8,-30.806 11.994,-37.978c4.9,-2.556 9.172,-4.989 12.856,-7.306c3.9,-2.45 8.056,-5.344 12.378,-8.567c18.267,-13.633 32.711,-29.25 43.722,-43.878c19.028,-25.289 27.506,-42.056 27.506,-43.1" style="fill:#fff;fill-rule:nonzero;"/><path d="M2275.611,2828.639c44.894,-18.389 93.456,-28.55 143.733,-28.55c104.75,0 199.622,42.483 268.289,111.161c68.667,68.667 111.156,163.528 111.156,268.289c0,103.972 -42.161,198.372 -110.367,267.117c-67.956,68.478 -162.144,111.139 -266.494,111.933l-62.756,0.472l-24.217,-58.456l-202.5,-488.889l-24.056,-58.094l44.967,-44.289c34.767,-34.228 76.211,-61.833 122.244,-80.694m143.733,159.339c-26.267,0 -50.728,4.939 -72.539,13.867c-4.5,1.844 -8.917,3.861 -13.244,6.039l146.522,353.75c28.739,-9.622 54.517,-25.933 75.506,-47.083c34.189,-34.45 55.317,-82.15 55.317,-135.011c0,-52.894 -21.45,-100.789 -56.106,-135.456c-34.661,-34.656 -82.561,-56.106 -135.456,-56.106Z" style="fill:#4e5161;fill-rule:nonzero;"/><path d="M2419.344,2894.033c-78.028,0 -148.739,31.333 -200.283,82.083l202.5,488.889c156.628,-1.194 283.289,-128.567 283.289,-285.472c0,-157.644 -127.856,-285.5 -285.506,-285.5" style="fill:#b75e54;"/><path d="M2452.683,3463.089c141.95,-16.522 252.167,-137.183 252.167,-283.55c0,-146.372 -110.217,-267.033 -252.167,-283.556c-89.333,10.394 -166.1,62.061 -210.728,135.417l176.239,425.489c11.256,2.744 22.761,4.833 34.489,6.2" style="fill:#d5675a;"/><path d="M2385.055,3159.428c17.444,0 31.594,14.144 31.594,31.589c0,17.45 -14.15,31.594 -31.594,31.594c-17.444,0 -31.589,-14.144 -31.589,-31.594c0,-17.444 14.144,-31.589 31.589,-31.589m-109.056,-45.839l14.239,34.367c4.8,2.939 10.439,4.633 16.472,4.633c17.444,0 31.594,-14.144 31.594,-31.594c0,-17.444 -14.144,-31.583 -31.594,-31.583c-14.894,0 -27.372,10.311 -30.711,24.178Zm120.817,-118.256c25.678,0 46.5,20.822 46.5,46.5c0,25.672 -20.828,46.5 -46.5,46.5c-25.672,0 -46.5,-20.828 -46.5,-46.5c0.006,-25.678 20.828,-46.5 46.5,-46.5Z" style="fill:#d96e62;"/><path d="M2604.938,3253.294c0,-15.5 12.572,-28.072 28.072,-28.072c15.506,0 28.078,12.572 28.078,28.072c-0.006,4.05 -11.95,41.2 -38.744,76.778c-14.011,18.622 -32.217,38.356 -54.956,55.328c-4.739,3.539 -10.106,7.217 -16.111,10.994c-5.811,3.656 -11.45,6.933 -16.817,9.722c-13.8,7.172 -30.8,1.8 -37.978,-12c-7.178,-13.794 -1.8,-30.806 12,-37.978c4.9,-2.55 9.172,-4.989 12.856,-7.3c3.9,-2.444 8.05,-5.339 12.378,-8.567c18.267,-13.633 32.711,-29.256 43.722,-43.878c19.022,-25.289 27.5,-42.05 27.5,-43.1" style="fill:#fff;fill-rule:nonzero;"/><path d="M3165.266,2085.906c25.772,0 46.672,20.906 46.672,46.672c0,25.778 -20.906,46.672 -46.672,46.672c-25.778,0 -46.678,-20.9 -46.678,-46.672c0,-25.767 20.9,-46.672 46.678,-46.672" style="fill:#f9d9a1;"/><path d="M5154.555,3372.783c-404.55,-137.317 -826.65,-241.011 -1280.039,-284.756l0,-996.844c423.344,48.633 849.706,139 1280.039,284.761l-285.144,434.989l285.144,561.85Z" style="fill:#f15f62;"/><path d="M4542.811,3151.017c178,40.628 351.422,89.239 521.322,143.978l-234.1,-461.25c-8.322,-14.4 -8.422,-32.85 1.3,-47.711l252.794,-385.639c-194.544,-63.767 -388.461,-116.267 -581.822,-158.772c-194.928,-42.85 -388.983,-75.494 -582.256,-99.217l0,904.589c214.139,22.45 421.25,58.044 622.761,104.022m597.156,264.822c-201.194,-68.294 -406.383,-128.139 -617.078,-176.228c-211.094,-48.178 -428.1,-84.739 -652.65,-106.394c-23.517,-2.222 -41.144,-22.028 -41.117,-45.194l-0.156,0l0,-996.839c0,-25.15 20.394,-45.544 45.544,-45.544c2.611,0 5.161,0.222 7.65,0.644c212.483,24.489 425.589,59.389 639.361,106.383c214.728,47.206 430.567,106.711 647.617,180.228c23.772,8.056 36.522,33.867 28.467,57.639c-1.261,3.717 -2.956,7.161 -5,10.306l0.022,0.017l-270.761,413.056l273.256,538.422c11.3,22.4 2.3,49.722 -20.1,61.017c-11.322,5.711 -23.906,6.239 -35.044,2.461l-0.011,0.028Z" style="fill:#4e5161;fill-rule:nonzero;"/><path d="M4574.266,2849.489l-682.5,280.517c-23.183,9.533 -49.711,-1.533 -59.239,-24.722c-2.322,-5.65 -3.422,-11.506 -3.417,-17.256l-0.144,0l0,-996.844c0,-20.378 13.389,-37.633 31.856,-43.45l682.5,-280.522c23.189,-9.522 49.711,1.539 59.239,24.728c2.328,5.65 3.422,11.506 3.417,17.256l0.15,0l0,996.839c0.006,20.383 -13.394,37.639 -31.861,43.456" style="fill:#4e5161;"/><path d="M45.466,3372.783c404.55,-137.317 826.644,-241.011 1280.039,-284.756l0,-996.844c-423.35,48.633 -849.706,139 -1280.039,284.761l285.144,434.989l-285.144,561.85Z" style="fill:#f15f62;"/><path d="M677.133,3239.611c-210.694,48.083 -415.883,107.933 -617.078,176.228l-0.011,-0.028c-11.133,3.778 -23.717,3.25 -35.039,-2.461c-22.4,-11.294 -31.406,-38.617 -20.106,-61.017l273.256,-538.422l-270.761,-413.056l0.022,-0.017c-2.05,-3.139 -3.744,-6.589 -5,-10.306c-8.056,-23.772 4.689,-49.583 28.461,-57.639c217.056,-73.517 432.894,-133.022 647.622,-180.228c213.767,-46.989 426.872,-81.894 639.361,-106.383c2.489,-0.422 5.039,-0.644 7.644,-0.644c25.156,0 45.55,20.389 45.55,45.544l0,996.839l-0.156,0c0.028,23.167 -17.6,42.967 -41.122,45.194c-224.55,21.656 -441.556,58.217 -652.644,106.394m-541.244,55.383c169.894,-54.739 343.317,-103.35 521.317,-143.978c201.517,-45.978 408.617,-81.578 622.756,-104.028l0,-904.589c-193.272,23.728 -387.328,56.372 -582.25,99.217c-193.367,42.506 -387.283,95.011 -581.822,158.772l252.794,385.639c9.728,14.861 9.622,33.311 1.3,47.711l-234.094,461.256Z" style="fill:#4e5161;fill-rule:nonzero;"/><path d="M1308.249,3130.006l-682.5,-280.517c-18.467,-5.817 -31.856,-23.067 -31.856,-43.45l0,-996.844l0.144,0c-0.006,-5.75 1.094,-11.6 3.417,-17.256c9.528,-23.189 36.05,-34.256 59.239,-24.728l682.5,280.522c18.467,5.817 31.856,23.067 31.856,43.45l0,996.839l-0.144,0c0.006,5.75 -1.094,11.606 -3.417,17.256c-9.528,23.194 -36.05,34.261 -59.239,24.728" style="fill:#4e5161;fill-rule:nonzero;"/><path d="M639.433,1809.194l0,996.844c1312.094,-300.378 2553.711,-296.217 3921.144,0l0,-996.844c-1367.428,-296.222 -2609.05,-300.378 -3921.144,0" style="fill:#f15f62;"/><path d="M593.888,2806.033l0,-996.839l0.094,0c-0.017,-20.733 14.244,-39.478 35.311,-44.294c659.178,-150.906 1300.956,-225.317 1949.961,-224.794c648.439,0.522 1303.217,75.772 1988.894,224.178c21.55,3.606 37.978,22.339 37.978,44.911l0,996.839l-0.039,0c0,3.167 -0.333,6.383 -1.033,9.611c-5.3,24.556 -29.522,40.172 -54.078,34.867c-681.006,-147.522 -1330.133,-222.322 -1971.722,-222.833c-640.678,-0.517 -1274.817,72.967 -1926.661,221.967c-4.167,1.256 -8.583,1.939 -13.161,1.939c-25.156,0 -45.544,-20.394 -45.544,-45.55m91.089,-960.572l0,903.717c639.672,-142.472 1263.561,-212.739 1894.278,-212.228c631.678,0.5 1269.367,71.933 1935.778,212.817l0,-903.817c-667.917,-142.411 -1305.489,-214.611 -1935.778,-215.117c-630.067,-0.506 -1253.8,70.55 -1894.278,214.628Z" style="fill:#4e5161;fill-rule:nonzero;stroke:url(#_Radial1);stroke-width:5.56px;"/><g transform="matrix(6.283039,0.363213,-0.363213,6.283039,-6275.451557,-2342.847262)"><g transform="matrix(1.020833,-0.198747,0.194925,1.001201,-144.890609,274.705662)"><text x="1172.728px" y="660.349px" style="font-family:'SportfieldVarsityRegular', 'Sportfield Varsity';font-size:120px;fill:#fff;">B</text></g><g transform="matrix(1.029791,-0.145363,0.142568,1.009987,-123.250105,218.620194)"><text x="1253.866px" y="644.865px" style="font-family:'SportfieldVarsityRegular', 'Sportfield Varsity';font-size:120px;fill:#fff;">A</text></g><g transform="matrix(1.035565,-0.095943,0.094098,1.01565,-102.932879,160.452201)"><text x="1327.344px" y="634.584px" style="font-family:'SportfieldVarsityRegular', 'Sportfield Varsity';font-size:120px;fill:#fff;">R</text></g><g transform="matrix(1.038952,-0.046687,0.045789,1.018972,-81.642128,97.031808)"><text x="1408.452px" y="627.243px" style="font-family:'SportfieldVarsityRegular', 'Sportfield Varsity';font-size:120px;fill:#fff;">L</text></g><g transform="matrix(1.039996,-0.003003,0.002946,1.019996,-61.125048,35.206121)"><text x="1485.47px" y="623.83px" style="font-family:'SportfieldVarsityRegular', 'Sportfield Varsity';font-size:120px;fill:#fff;">E</text></g><g transform="matrix(1.039387,0.035703,-0.035016,1.019399,-41.080193,-24.592117)"><text x="1559.76px" y="623.649px" style="font-family:'SportfieldVarsityRegular', 'Sportfield Varsity';font-size:120px;fill:#fff;">Y</text></g><g transform="matrix(1.038341,0.058717,-0.057588,1.018373,-28.739966,-63.852196)"><text x="1626.408px" y="626.145px" style="font-family:'SportfieldVarsityRegular', 'Sportfield Varsity';font-size:120px;fill:#fff;">&apos;</text></g><g transform="matrix(1.036896,0.080292,-0.078748,1.016956,-14.614638,-99.485585)"><text x="1643.355px" y="626.746px" style="font-family:'SportfieldVarsityRegular', 'Sportfield Varsity';font-size:120px;fill:#fff;">S</text></g></g><defs><radialGradient id="_Radial1" cx="0" cy="0" r="1" gradientUnits="userSpaceOnUse" gradientTransform="matrix(4012.238889,0,0,1311.480507,593.88837,2195.84308)"><stop offset="0" style="stop-color:#fac373;stop-opacity:1"/><stop offset="0.09" style="stop-color:#eb9c68;stop-opacity:1"/><stop offset="0.19" style="stop-color:#dc775e;stop-opacity:1"/><stop offset="0.46" style="stop-color:#d5675a;stop-opacity:1"/><stop offset="0.79" style="stop-color:#da735d;stop-opacity:1"/><stop offset="0.9" style="stop-color:#e68f64;stop-opacity:1"/><stop offset="1" style="stop-color:#f3ad6b;stop-opacity:1"/></radialGradient></defs></svg>