<svg id="color_outline" height="512" viewBox="0 0 64 64" width="512" xmlns="http://www.w3.org/2000/svg"><path d="m24 16s9 1 9 12-9 15-9 15-9-4-9-15 9-12 9-12z" fill="#80a53f"/><path d="m24.94 1c.57 0 1.03.48 1 1.06l-.77 13.07-.07 1.11c-.67-.19-1.1-.24-1.1-.24s-.43.05-1.1.24l-.84-14.18c-.03-.58.43-1.06 1-1.06z" fill="#24725f"/><path d="m58.12 34.12 2.76 6.39-2.37-.01-2.65-.01h-.02c-.41-3.09-1.03-5.44-1.48-6.88v-.02c1.17.22 2.42.4 3.76.52z" fill="#607c2f"/><path d="m58.51 40.5c.52 1.15 1.23 3.17 1.45 5.76-2.59.23-4.7-.12-5.93-.44h-.01l-.46-2.61v-.01c.81-.03 1.67-.08 2.57-.15-.08-.9-.18-1.76-.29-2.56h.02z" fill="#80a53f"/><path d="m59.63 34.23c-.51-.03-1.02-.07-1.51-.12-1.34-.12-2.59-.3-3.76-.52-4.41-.79-7.61-2.11-9.31-2.93.08-1.38.01-3.18-.5-5.15 2.53-.7 5.73-2.36 8.14-3.73 1.9 1.69 5.35 5.58 6.94 12.45z" fill="#80a53f"/><path d="m45.14 14.18s6.88 5.8 11.11 5.43c0 0-1.49.98-3.56 2.17-2.41 1.37-5.61 3.03-8.14 3.73-.71-2.79-2.29-5.91-5.57-8.67-2.8-2.35-5.38-3.23-7.6-3.36 3.26-1.5 9.08-3.23 13.76.7z" fill="#99b765"/><path d="m55.84 40.49c.11.8.21 1.66.29 2.56-.9.07-1.76.12-2.57.15-3.11.11-5.52-.09-7.03-.29-1.54-4.2-3.38-7.13-4.48-8.66 1.62-.38 2.61-.86 2.61-.86s.3-1.06.39-2.73c1.7.82 4.9 2.14 9.31 2.93v.02c.45 1.44 1.07 3.79 1.48 6.88z" fill="#99b765"/><path d="m54.02 45.82.42 2.34-6.77-1.63c-.35-1.3-.74-2.51-1.14-3.62 1.51.2 3.92.4 7.03.29v.01z" fill="#607c2f"/><path d="m47.67 46.53c.13.48.25.97.37 1.47-4.57-.26-8.03-1.5-10.44-2.78.32-1.45.43-2.66.45-3.55 2.24.82 3.95 1.33 3.95 1.33-1.74-1.74-2.47-5.5-2.78-8.34 1.07-.07 2.03-.23 2.83-.41 1.1 1.53 2.94 4.46 4.48 8.66.4 1.11.79 2.32 1.14 3.62z" fill="#80a53f"/><path d="m42.05 34.25c-.8.18-1.76.34-2.83.41-.22-2.07-.22-3.66-.22-3.66 0-6.11-5.07-9.45-8.32-10.97-1.79-2.41-4.19-3.4-5.58-3.79l.07-1.11c1.25-.79 3.43-1.81 6.21-1.65 2.22.13 4.8 1.01 7.6 3.36 3.28 2.76 4.86 5.88 5.57 8.67.51 1.97.58 3.77.5 5.15-.09 1.67-.39 2.73-.39 2.73s-.99.48-2.61.86z" fill="#80a53f"/><path d="m45 31c-1 0-2 0-3 0-3-5-1-12-10-14-3.478-1-2.839-2.081-2.935-3.377-1.677.294-3.019.953-3.895 1.507l-.07 1.11c1.39.39 3.79 1.38 5.58 3.79 3.25 1.52 8.32 4.86 8.32 10.97 0 0 0 1.59.22 3.66 1.07-.07 2.03-.23 2.83-.41 1.62-.38 2.61-.86 2.61-.86s.263-.944.37-2.443c-.01.018-.021.035-.03.053z" fill="#607c2f"/><path d="m39.22 34.66c.31 2.84 1.04 6.6 2.78 8.34 0 0-1.71-.51-3.95-1.33-2.6-.96-5.92-2.34-8.09-3.82 1.67-2.33 3.04-5.56 3.04-9.85 0-3.65-.99-6.19-2.32-7.97 3.25 1.52 8.32 4.86 8.32 10.97 0 0 0 1.59.22 3.66z" fill="#99b765"/><path d="m29.96 37.85c2.17 1.48 5.49 2.86 8.09 3.82-.02.89-.13 2.1-.45 3.55-.58 2.67-1.86 6.12-4.6 9.78-.31-.41-.61-.82-.89-1.23-.77-1.1-1.44-2.17-2.03-3.2-2.22-3.9-3.28-7.19-3.74-9.02 1.1-.83 2.44-2.04 3.62-3.7z" fill="#607c2f"/><path d="m32.11 53.77-3.11 6.23-1.52-1.82-1.7-2.04-.01-.01c2.1-2.31 3.49-4.28 4.31-5.56.59 1.03 1.26 2.1 2.03 3.2z" fill="#24725f"/><path d="m26.34 41.55c.46 1.83 1.52 5.12 3.74 9.02-.82 1.28-2.21 3.25-4.31 5.56-.54.6-1.13 1.23-1.77 1.87-.64-.64-1.23-1.27-1.77-1.87-2.1-2.31-3.49-4.28-4.31-5.56 2.22-3.9 3.28-7.19 3.74-9.02 1.34 1 2.34 1.45 2.34 1.45s1-.45 2.34-1.45z" fill="#99b765"/><path d="m25.78 56.14 1.7 2.04c-.55 1.14-1.64 2.98-3.48 4.82-1.84-1.84-2.93-3.68-3.48-4.82l1.7-2.04.01-.01c.54.6 1.13 1.23 1.77 1.87.64-.64 1.23-1.27 1.77-1.87z" fill="#80a53f"/><path d="m22.23 56.13-.01.01-1.7 2.04-1.52 1.82-3.11-6.23c.77-1.1 1.44-2.17 2.03-3.2.82 1.28 2.21 3.25 4.31 5.56z" fill="#24725f"/><path d="m21.66 41.55c-.46 1.83-1.52 5.12-3.74 9.02-.59 1.03-1.26 2.1-2.03 3.2-.28.41-.58.82-.89 1.23-4.23-5.64-4.98-10.79-5.05-13.33 2.6-.96 5.92-2.34 8.09-3.82 1.18 1.66 2.52 2.87 3.62 3.7z" fill="#607c2f"/><path d="m17.32 20.03c-1.33 1.78-2.32 4.32-2.32 7.97 0 4.29 1.37 7.52 3.04 9.85-2.17 1.48-5.49 2.86-8.09 3.82-2.24.82-3.95 1.33-3.95 1.33 3-3 3-12 3-12 0-6.11 5.07-9.45 8.32-10.97z" fill="#99b765"/><path d="m18.52 27.47c-.197-1.539-.338-4.867 1.727-6.642.369-.317.945-.116 1.018.365.257 1.701.482 5.269-1.797 6.713-.384.243-.891.014-.948-.436z" fill="#cccb6a"/><circle cx="19.06" cy="30.66" fill="#cccb6a" r="1.16"/><g fill="#36103d"><path d="m16.679 19.23c-3.342 1.606-8.679 5.198-8.679 11.77-.001 2.39-.49 9.076-2.707 11.293-.324.324-.387.826-.152 1.219.184.308.513.488.859.488.095 0 .191-.014.286-.042.119-.036 1.217-.367 2.755-.902.294 2.917 1.41 7.546 5.159 12.544.188.252.485.4.8.4.279 0 .531-.131.719-.332l2.386 4.779c.15.302.443.507.778.546.04.005.079.007.117.007.295 0 .577-.13.768-.359l.579-.694c.635 1.054 1.585 2.4 2.946 3.761.195.194.451.292.707.292s.512-.098.707-.293c1.361-1.361 2.312-2.706 2.946-3.761l.579.694c.191.23.473.36.768.36.038 0 .077-.002.116-.007.335-.039.628-.245.778-.546l2.386-4.779c.189.201.441.332.72.332.314 0 .611-.148.8-.4 2.443-3.257 3.767-6.358 4.476-8.931 2.908 1.344 6.166 2.128 9.708 2.33.018.001.037.001.056.001.294 0 .574-.129.765-.356.18-.214.243-.492.209-.766l5.196 1.253c.077.019.156.028.234.028.252 0 .498-.095.686-.272.245-.231.358-.571.299-.903l-.158-.889c.835.133 1.87.24 3.062.24.541 0 1.113-.022 1.712-.074.55-.047.958-.531.91-1.082-.164-1.919-.582-3.512-.98-4.676l.904.004h.004c.336 0 .649-.168.835-.449s.217-.638.083-.948l-2.116-4.894c.274-.014.535-.132.714-.345.203-.241.28-.563.21-.87-1.41-6.085-4.234-9.92-6.276-12.024 1.4-.832 2.36-1.459 2.464-1.527.383-.251.546-.73.396-1.163-.15-.434-.574-.712-1.031-.669-3.118.27-8.555-3.663-10.384-5.201-5.029-4.235-11.221-2.458-14.601-.935-1.967-.066-3.646.395-4.91.941l.668-11.306c.033-.548-.164-1.091-.541-1.49-.375-.398-.906-.627-1.455-.627h-1.879c-.549 0-1.079.229-1.455.628-.377.399-.574.942-.541 1.49l.793 13.423c-1.497.547-3.546 1.619-5.178 3.689zm-6.679 11.77c0-3.897 2.257-6.592 4.852-8.406-.527 1.494-.852 3.275-.852 5.406 0 4.043 1.142 7.171 2.631 9.556-2.474 1.477-5.974 2.818-8.342 3.641 1.687-4.001 1.711-9.889 1.711-10.197zm.987 11.351c2.214-.837 4.797-1.937 6.793-3.146.908 1.135 1.864 2.033 2.737 2.735-.685 2.46-2.213 6.641-5.511 11.347-3.048-4.499-3.848-8.528-4.019-10.936zm14.769.818c.569 1.864 1.538 4.429 3.157 7.356-1.01 1.518-2.597 3.638-4.914 6.047-2.317-2.409-3.904-4.53-4.914-6.047 1.619-2.926 2.589-5.492 3.157-7.356.742.461 1.264.707 1.35.745.132.057.269.086.408.086s.276-.029.406-.086c.086-.039.609-.285 1.35-.745zm-8.711 10.677c.323-.477.634-.95.923-1.415.746 1.061 1.718 2.325 2.939 3.722l-1.695 2.032zm6.955 7.698c-1.11-1.244-1.842-2.411-2.288-3.234l.553-.663c.329.348.67.701 1.029 1.06.186.188.44.293.706.293s.52-.105.707-.293c.359-.359.699-.711 1.029-1.06l.553.663c-.447.824-1.179 1.991-2.289 3.234zm4.788-3.359-1.695-2.032c1.221-1.397 2.193-2.661 2.939-3.722.289.465.601.938.923 1.415zm4.206-4.897c-3.298-4.706-4.826-8.888-5.511-11.347.872-.702 1.828-1.601 2.737-2.735 1.997 1.209 4.58 2.309 6.793 3.146-.171 2.407-.971 6.436-4.019 10.936zm6.717-12.091c-2.369-.823-5.869-2.164-8.342-3.641 1.489-2.385 2.631-5.513 2.631-9.556 0-2.131-.325-3.912-.852-5.406 2.595 1.814 4.852 4.509 4.852 8.406 0 .308.024 6.196 1.711 10.197zm-.977 3.45c.103-.574.176-1.106.225-1.591 1.538.535 2.636.866 2.755.902.095.028.191.042.286.042.346 0 .675-.18.859-.488.234-.393.172-.896-.152-1.219-1.299-1.299-2.002-4.132-2.364-6.737.442-.054.866-.117 1.258-.192 1.443 2.114 3.661 5.983 5.134 11.528-2.921-.306-5.595-1.072-8.001-2.245zm6.364-10.357c.255-.124.445-.35.523-.623.026-.091.177-.638.303-1.513 1.792.765 4.377 1.674 7.654 2.319.511 1.75 1.112 4.33 1.463 7.654-3.335.221-5.982.07-7.793-.135-1.195-3.119-2.533-5.515-3.594-7.153.869-.28 1.399-.528 1.444-.549zm12.334.758 1.926 4.453-2.647-.011c-.283-1.834-.624-3.391-.955-4.646.542.078 1.104.144 1.676.204zm-8.958 10.642c-.157-.555-.319-1.098-.489-1.62 1.078.094 2.343.165 3.818.165.3 0 .61-.004.926-.01l.463 2.603zm10.372-.362c-1.668.052-3.032-.142-3.948-.332l-.151-.851c.479-.028.967-.06 1.473-.104.264-.022.509-.149.679-.352.171-.203.255-.465.231-.73-.044-.505-.094-.993-.148-1.469l.863.004c.342.871.764 2.182 1.001 3.834zm-.527-12.199c-5.719-.507-9.901-2.029-12.226-3.089.024-1.12-.051-2.433-.333-3.857 2.211-.749 4.715-2.016 6.78-3.171 1.733 1.683 4.3 4.891 5.779 10.117zm-13.828-18.181c.235.198 4.756 3.972 8.903 5.258-2.15 1.28-5.423 3.091-8.144 4.034-.867-2.675-2.538-5.564-5.627-8.165-1.638-1.376-3.215-2.266-4.701-2.824 3.063-.821 6.583-.816 9.569 1.697zm-6.155 2.657c6.878 5.791 5.87 13.167 5.471 15.061-.636.248-1.959.691-3.685.904-.088-1.042-.122-1.952-.122-2.57 0-6.572-5.337-10.164-8.679-11.77-1.564-1.984-3.513-3.052-4.99-3.618 2.442-1.319 6.792-2.386 12.005 1.993zm-15.275-15.605h1.879l-.77 13.015c-.033-.005-.056-.008-.06-.008-.072-.009-.148-.009-.221 0-.004 0-.028.004-.06.008zm.942 15.009c1.022.151 7.997 1.532 7.997 10.991 0 9.005-6.301 12.977-8 13.883-1.701-.909-8-4.88-8-13.883 0-9.414 6.99-10.835 8.003-10.991z"/><path d="m27.867 26.152c.088.575.133 1.197.133 1.848 0 .552.447 1 1 1s1-.448 1-1c0-.753-.053-1.477-.156-2.152-.084-.545-.595-.922-1.14-.836-.546.083-.921.594-.837 1.14z"/><path d="m23.752 21.032c.583.144 1.7.546 2.629 1.622.198.229.476.346.757.346.232 0 .465-.08.653-.243.418-.361.465-.993.104-1.411-1.292-1.495-2.85-2.055-3.664-2.255-.532-.133-1.077.195-1.21.731s.195 1.078.731 1.21z"/></g></svg>