<svg id="Layer_1" enable-background="new 0 0 512 512" height="512" viewBox="0 0 512 512" width="512" xmlns="http://www.w3.org/2000/svg"><g><path d="m241.655 412.382c1.432-3.848 4.801-6.762 8.588-8.348 3.788-1.586 7.975-1.973 12.081-1.914 4.795.069 9.843.828 13.599 3.809 4.313 3.424 6.119 9.169 6.532 14.66.345 4.588-.181 9.414-2.627 13.311-2.142 3.411-5.536 5.797-8.539 8.481-5.808 5.19-10.361 11.776-13.164 19.044-8.505-12.092-17.268-24.826-19.147-39.489-.44-3.43 1.471-6.314 2.677-9.554z" fill="#517a1d"/><path d="m229.05 385.791c5.787-2.058 12.442-.745 17.596 2.598 5.153 3.342 8.917 8.516 11.477 14.1 4.327 9.434 5.308 20.9.365 30.026-2.486 4.591-6.276 8.313-9.465 12.447-3.189 4.133-5.885 9.063-5.559 14.274-9.852-13.312-19.815-26.821-25.889-42.229-2.119-5.375-3.764-11.128-3.124-16.869.64-5.742 3.997-11.472 9.393-13.534 1.252-.478 3.875-.958 5.206-.813z" fill="#5f8f22"/><path d="m292.915 380.743c-5.787-2.059-12.442-.745-17.595 2.597s-8.917 8.517-11.477 14.1c-4.327 9.434-5.308 20.901-.365 30.026 2.486 4.591 6.276 8.314 9.465 12.447 3.189 4.134 5.885 9.064 5.559 14.274 9.852-13.312 19.815-26.821 25.889-42.229 2.119-5.375 3.764-11.128 3.124-16.869s-3.997-11.472-9.393-13.534c-1.252-.477-3.876-.957-5.207-.812z" fill="#5f8f22"/><path d="m323.502 363.885c-1.383-7.347-4.87-14.256-10.086-18.092-3.769-2.772-8.211-3.823-12.584-4.037-6.076-.296-12.933 1.516-16.225 7.885-1.099 2.127-2.586 5.679-3.48 7.95-.703 1.788-1.223 3.668-1.658 5.58-2.122-4.939-4.99-9.34-8.612-12.693-2.672-2.474-5.736-4.402-9.027-5.036-2.817-.542-5.538-.309-8.152.44-2.509-4.176-5.63-7.741-9.334-10.145-12.06-7.823-25.159.301-33.187 12.122-1.684 2.479-2.857 5.905-3.51 9.048-2.936 14.149-1.502 29.374 2.739 43s11.167 25.757 19.125 36.493c-.557-6.174.684-12.962 2.93-18.666 4.746 10.055 12.564 18.486 13.78 30.039 5.251-10.345 14.608-16.075 21.978-24.167 7.495-8.229 13.049-19.447 14.831-31.639 2.809 5.306 6.483 9.925 8.734 15.634 2.926 7.423 3.036 16.479.291 24.008 14.944-8.438 26.549-25.56 30.724-45.329 1.542-7.298 2.106-15.048.723-22.395z" fill="#1a0000" opacity=".1"/><path d="m289.379 344.875c4.102-6.369 12.644-8.181 20.214-7.884 5.448.213 10.982 1.264 15.678 4.036 6.498 3.836 10.842 10.746 12.565 18.092 1.723 7.347 1.02 15.098-.9 22.396-5.201 19.768-19.659 36.89-38.278 45.329 3.42-7.529 3.284-16.585-.362-24.008-3.125-6.364-8.534-11.325-12.099-17.454-5.686-9.775-6.134-22.403-1.153-32.557 1.114-2.271 2.966-5.823 4.335-7.95z" fill="#719c3a"/><path d="m197.873 343.094c10.002-11.821 26.32-19.946 41.345-12.122 7.632 3.974 13.311 11.095 16.764 18.977 5.206 11.887 7.67 31.335-5.553 39.353-9.43 5.718-19.246 11.819-24.799 21.347-3.565 6.117-5.68 13.95-4.89 20.986-9.914-10.736-18.543-22.868-23.826-36.493-5.284-13.626-7.071-28.851-3.412-42.999.812-3.144 2.273-6.57 4.371-9.049z" fill="#719c3a"/><path d="m288.05 382.665c-1.144 13.914-8.625 26.923-19.109 36.168-9.006 7.91-20.347 13.581-26.971 23.54-.143.191-.286.429-.429.62-1.525-11.675-11.484-20.157-17.345-30.354-7.672-13.247-6.29-27.114-2.811-41.266 1.048-4.289 2.096-8.577 4.384-12.342 2.144-3.526 5.241-6.385 8.387-9.054 7.529-6.29 16.725-10.865 26.828-9.292 4.098.619 7.957 2.573 11.246 5.051 2.191 1.62 4.193 3.479 5.957 5.575 7.242 8.481 10.769 20.108 9.863 31.354z" fill="#7dad40"/><path d="m344.654 312.066c-.601-4.945-2.154-9.84-5-13.412-2.401-3.015-5.579-4.927-8.833-6.268-3.68-1.515-7.609-2.372-11.454-1.727-3.845.644-7.606 2.915-9.921 6.743-.792 1.31-1.331 2.789-1.765 4.321-9.057-9.159-23.395-10.805-32.076-1.155-.662.736-1.278 1.529-1.877 2.339-9.222-8.86-22.06-11.966-33.183-7.398-1.146.471-2.244 1.015-3.332 1.575-.171-.48-.314-.973-.5-1.445-1.983-5.02-4.921-9.72-9.024-12.109-5.36-3.121-11.202-1.688-16.175 1.732-11.89 8.178-19.567 23.622-21.218 40.354-.867 8.78-.15 17.8 2.08 26.208 2.517 9.491 8.56 17.592 9.746 27.561-.853-7.168 2.893-13.997 7.653-18.267 2.389-2.142 4.998-3.858 7.619-5.555 1.889 10.047 5.169 19.758 8.979 27.831 4.458 9.447 10.033 18.964 10.047 29.884 6.034-12.077 14.221-22.518 23.817-30.374 2.935-2.403 6.029-4.612 9.03-6.946.854 15.015-17.752 38.346-23.817 47.879-3.574 5.575-3.908 12.914-3.479 18.537 6.624-9.959 17.965-15.63 26.971-23.54 10.484-9.244 17.965-22.253 19.109-36.168.649-8.068-1.018-16.314-4.666-23.472.555-1.277 1.069-2.583 1.51-3.929 3.796 3.8 7.529 7.785 10.334 12.726 2.41 4.242 7.247 16.455 4.002 21.419 6.939-10.614 13.386-22.097 16.965-34.903 1.068 2.435 2.236 4.804 3.608 6.998 2.047 3.274 4.431 6.282 5.955 9.962 1.524 3.679 2.048 8.336.264 11.835 6.295-6.896 10.708-16.115 13.547-25.875s4.175-20.085 5.003-30.4c.399-4.977.682-10.016.081-14.961z" fill="#1a0000" opacity=".1"/><path d="m321.293 333.411c1.367 8.448 4.865 16.543 10.081 23.327 2.516 3.274 5.447 6.283 7.321 9.962s2.517 8.336.324 11.835c7.739-6.896 13.164-16.115 16.653-25.875s5.133-20.085 6.151-30.399c.491-4.976.839-10.015.101-14.959-.739-4.945-2.648-9.84-6.146-13.413-2.951-3.015-6.858-4.927-10.859-6.268-4.523-1.515-9.354-2.372-14.081-1.727-4.727.644-9.349 2.915-12.196 6.743-2.933 3.945-3.732 9.157-3.204 14.045s2.263 9.553 3.996 14.153c1.348 3.582 1.247 8.797 1.859 12.576z" fill="#5c8a21"/><path d="m229.109 328.029c-1.048 2.383-2.335 4.717-3.86 6.862-2.621 3.907-5.909 7.338-9.769 10.055-.191.191-.429.334-.62.476-1.144.81-2.335 1.525-3.574 2.24-1.191.667-2.383 1.334-3.622 2.001-.715.381-1.43.762-2.192 1.144-3.193 1.668-6.433 3.383-9.34 5.528-.572.429-1.191.905-1.763 1.334-.81.762-1.62 1.525-2.335 2.335-3.717 4.05-6.099 9.244-5.337 14.629-1.096-7.624-5.718-14.153-9.197-21.11-1.096-2.097-2.049-4.241-2.764-6.481-2.764-8.387-3.622-17.393-2.573-26.208.905-7.195 3.097-14.057 6.528-20.3 1.239-2.335 2.716-4.575 4.336-6.671 4.05-5.432 9.197-10.007 15.201-13.39h.048c.143-.095.334-.191.477-.286 3.193-1.715 6.671-2.859 10.197-3.097 1.382-.095 2.811-.048 4.193.191.476.048.953.143 1.382.238 1.239.286 2.43.667 3.621 1.239l.286.143c.477.238.905.477 1.287.715 1.096.62 2.097 1.382 3.002 2.287 1.001.858 1.906 1.858 2.764 2.954 1.477 1.858 2.716 3.907 3.717 6.004.238.476.429.953.62 1.43 4.957 11.245 4.338 24.54-.713 35.738z" fill="#6fa628"/><path d="m277.039 295.803c-7.603 6.875-11.95 17.132-10.198 27.426 1.748 10.27 10.114 17.965 18.215 24.513 5.769 4.663 11.818 9.341 16.106 15.483 2.962 4.242 8.908 16.455 4.92 21.419 9.831-12.233 18.876-25.614 22.624-40.854s1.379-32.728-9.355-44.177c-10.733-11.45-30.671-14.336-42.312-3.81z" fill="#6fa628"/><path d="m289.956 346.211c-1.286 4.575-3.336 8.959-6.195 12.723-6.481 8.53-16.678 13.247-25.637 19.204-11.77 7.862-21.825 18.298-29.258 30.354 0-10.912-6.862-20.395-12.342-29.878-9.768-16.821-16.821-40.79-11.103-60.089 4.241-14.391 14.773-23.206 28.496-27.781 15.296-5.099 33.309-.667 44.697 10.722.667.667 1.287 1.334 1.858 2.049 10.009 11.437 13.677 28.067 9.484 42.696z" fill="#82c22f"/><path d="m354.943 284.391c-2.043-12.166-8.189-23.21-16.671-29.962-3.604-2.869-7.712-5.013-12.004-5.178-2.853-.109-5.679.655-8.433 1.574-4.254 1.42-8.532 3.294-11.886 6.81-1.244 1.304-2.181 2.686-2.927 4.105-5.349-3.339-12.077-3.967-17.07.062-.264.214-.522.438-.773.672-.893.835-1.728 1.787-2.534 2.787-1.81-4.083-4.141-7.763-7.102-10.723-13.755-13.743-31.042-11.155-44.539-.099-3.856-10.065-12.198-17.215-21.459-14.34-12.577 3.905-21.704 18.292-24.893 33.748-3.188 15.456-1.334 31.822 1.825 47.288 1.517-10.939 10.296-17.882 18.65-22.084 1.403-.706 2.833-1.389 4.268-2.073-1.703 16.44 1.503 33.868 6.642 49.819 1.339 4.159 9.825 20.962 7.557 25.17 3.994-7.411 9.449-13.623 15.765-17.952 9.15-6.271 19.911-8.567 28.692-15.591 1.926-1.541 3.698-3.305 5.338-5.232.142 10.543-1.197 22.476-6.925 29.505-11.961 14.677-30.544 24.636-37.597 45.793 7.434-12.056 17.489-22.492 29.258-30.354 8.958-5.957 19.156-10.674 25.637-19.204 2.859-3.765 4.909-8.148 6.195-12.723 2.51-8.755 2.149-18.211-.648-26.857 1.254 1.109 2.512 2.214 3.706 3.404 9.267 9.235 13.465 21.484 16.257 35.107 10.513-12.796 13.137-31.7 12.826-49.213-.083-4.658-.478-9.416-1.224-14.082 7.172 2.193 14.916 2.588 20.668 8.137 4.31 4.157 6.759 10.689 7.746 17.313 5.614-10.327 7.699-23.46 5.655-35.627z" fill="#1a0000" opacity=".1"/><path d="m326.602 287.89c10.258 4.259 22.755 3.196 31.494 10.052 5.297 4.157 8.309 10.69 9.522 17.313 6.902-10.329 9.465-23.462 6.953-35.628s-10.066-23.211-20.494-29.962c-4.431-2.869-9.481-5.013-14.757-5.178-3.507-.11-6.982.655-10.367 1.574-5.23 1.42-10.489 3.294-14.612 6.811-13.931 11.881-.978 29.523 12.261 35.018z" fill="#88ad1a"/><path d="m220.484 276.184c-.429.667-.905 1.334-1.43 2.001-.191.238-.381.476-.62.715-.334.381-.667.762-1.001 1.144-1.668 1.715-3.479 3.193-5.48 4.479-1.144.762-2.287 1.477-3.526 2.097-4.003 2.192-8.434 3.907-12.818 5.623-1.763.667-3.479 1.334-5.194 2.049-2.43 1.001-4.908 2.144-7.243 3.431-1.573.905-3.05 1.811-4.479 2.811-5.623 4.003-10.055 9.149-11.198 15.82-3.907-15.439-6.195-31.831-2.287-47.271 3.24-12.58 11.293-24.493 22.539-30.545 2.526-1.382 5.242-2.478 8.101-3.193 1.191-.286 2.383-.477 3.526-.524 5.48-.477 10.626 1.382 14.82 4.67.095.048.191.143.238.191 2.621 2.097 4.861 4.765 6.624 7.767.429.715.81 1.477 1.191 2.24.667 1.382 1.239 2.859 1.62 4.384.191.524.334 1.096.477 1.668 1.525 6.958.095 14.487-3.86 20.443z" fill="#9ec91e"/><path d="m288.808 257.711c-12.999 9.879-18.829 32.225-8.268 45.657 4.778 6.077 11.895 9.757 17.9 14.625 11.393 9.235 16.553 21.483 19.986 35.107 12.923-12.796 16.149-31.7 15.767-49.213-.387-17.739-5.925-37.056-22.421-46.403-6.718-3.807-15.558-4.683-22.014-.445-.325.213-.641.437-.95.672z" fill="#9ec91e"/><path d="m291.672 284.979c.19 18.87-8.101 38.407-23.922 48.7-10.769 7.005-24.016 9.292-35.262 15.582-7.386 4.098-13.819 9.912-18.631 16.869-.286.334-.524.715-.763 1.096 2.811-4.241-7.624-21.015-9.292-25.208-10.722-27.018-14.725-58.326 6.242-81.818 17.011-19.061 45.459-27.876 66.903-10.436 5.289 4.336 9.007 10.102 11.389 16.535 2.192 5.957 3.24 12.39 3.336 18.68z" fill="#aad920"/><path d="m319.386 217.236c-12.934-5.275-27.843-2.17-38.841 7.642-1.752-.573-3.535-1.002-5.341-1.189-2.726-.283-5.467-.108-8.199.103.142-.288.281-.584.425-.866-12.793-8.268-27.718-12.628-41.865-8.99s-27.159 16.263-31.005 33.39c2.817-5.248 8.778-5.15 13.695-3.42 4.304 1.514 8.225 4.379 12.445 6.178-2.949 5.29-5.102 11.458-6.094 18.679-1.174 8.54-3.573 15.831-2.969 24.461 5.329-6.282 13.048-8.747 20.388-9.723 7.341-.976 14.778.37 21.918 2.68 4.238 1.371 8.724 1.026 12.867-.681 4.597 20.371-8.644 37.227-41.851 62.045-6.767 5.051-10.103 11.484-11.103 18.584 4.813-6.957 11.245-12.771 18.631-16.869 11.246-6.29 24.493-8.577 35.262-15.582 15.605-10.152 23.845-29.298 23.886-47.927 1.858.767 3.705 1.566 5.507 2.489 6.746 3.455 13.399 9.58 14.754 18.408 3.215-5.379 6.429-10.758 9.643-16.137 2.146-3.59 4.317-7.236 5.618-11.394 1.611-5.148 1.722-10.724.88-16.166 2.491-1.787 4.839-3.93 7.489-5.332 3.68-1.948 10.209-2.85 12.601 1.102-2.481-18.849-13.998-35.472-28.741-41.485z" fill="#1a0000" opacity=".1"/><path d="m366.203 254.36c-1.811-2.43-5.528-3.05-9.197-2.621-2.287.191-4.527.762-6.29 1.525-1.096.477-2.192 1.048-3.24 1.62-.81.524-1.62 1.001-2.383 1.525-.953.572-1.858 1.144-2.811 1.716-.238.143-.476.333-.762.476-1.191.667-2.43 1.334-3.717 1.858-2.811 1.096-5.814 1.668-8.816 1.811-.858.048-1.763.048-2.621.048-2.144 0-4.289-.143-6.338-.476-.858-.095-1.716-.238-2.573-.381l-.048-.048c-2.716-.524-5.337-1.287-7.862-2.24-1.239-.476-2.43-.953-3.574-1.525-2.097-1.001-4.098-2.144-6.052-3.431-2.144-1.334-4.193-2.907-6.099-4.622-2.573-2.24-4.956-4.765-7.1-7.481-2.811-3.669-5.242-7.72-7.1-12.056-.715-1.62-1.334-3.336-1.906-5.051.238-.238.524-.524.81-.715 1.43-1.382 3.002-2.668 4.622-3.764 13.485-9.864 31.831-12.914 47.699-7.672 1.239.429 2.43.858 3.622 1.382 16.392 6.908 28.877 22.538 31.736 40.122z" fill="#9eb21a"/><path d="m266.992 218.573c-.191.286-.334.572-.524.858-.429.667-.81 1.382-1.239 2.144-2.526 4.289-5.146 8.863-9.197 11.436-4.479 2.907-8.959 5.766-13.628 8.196 0 0-.048 0-.095.048-1.906.953-3.812 1.906-5.813 2.669-.429.238-.905.381-1.334.572-1.763.667-3.574 1.239-5.385 1.715-.953.238-1.858.429-2.812.572-.048.048-.143.048-.191.048-1.906.381-3.812.572-5.718.619-2.049.095-4.05 0-6.052-.286-1.096-.143-2.192-.381-3.24-.667-.762-.191-1.525-.476-2.287-.715-2.144-.762-4.193-1.715-6.242-2.668-.238-.048-.477-.191-.667-.286-.048 0-.048 0-.048 0-1.906-.905-3.86-1.763-5.814-2.478-.81-.286-1.62-.572-2.478-.81-2.097-.572-4.289-1.001-6.481-1.001-4.146-.143-8.053 1.001-10.34 4.432 4.718-17.155 20.729-29.782 38.121-33.404 17.393-3.621 35.739.715 51.464 9.006z" fill="#b7ce1e"/><path d="m278.491 274c7.672 4.674 16.731 6.418 25.024 9.873 8.292 3.456 16.472 9.58 18.137 18.409 3.952-5.379 7.904-10.758 11.855-16.137 2.638-3.591 5.306-7.236 6.906-11.394 3.519-9.148 1.359-19.662-3.214-28.332-5.76-10.92-15.692-20.005-27.696-22.893-11.461-2.757-27.139.592-34.007 11.237-8.688 13.466-13.556 29.153 2.995 39.237z" fill="#c4de21"/><path d="m291.814 223.365c-.715 0-1.477-.048-2.287-.143-16.25-1.906-24.303-3.717-24.303-3.717-12.199-2.144-20.586-8.911-11.818-13.676 3.956-2.144 9.721-2.907 15.963-2.573 3.097.143 6.29.524 9.483 1.191.905.143 1.858.381 2.763.62 3.526.81 6.957 1.906 10.055 3.193 11.534 4.908 13.868 15.725.144 15.105z" fill="#d7f223"/><path d="m295.774 242.399c-.477 2.43-1.144 4.861-1.954 7.195-.762 2.287-1.668 4.479-2.716 6.671-.619 1.239-1.239 2.478-1.954 3.669-.619 1.144-1.334 2.287-2.049 3.383-1.001 1.525-2.049 3.002-3.193 4.432-1.716 2.192-3.622 4.241-5.671 6.099-.381.381-.762.762-1.191 1.096-.667.572-1.382 1.144-2.097 1.62-1.811 1.382-3.717 2.526-5.718 3.479-5.861 2.716-12.58 3.431-18.822 1.811-8.768-2.335-17.917-3.669-26.923-2.716-1.239.143-2.478.286-3.764.476-.762.143-1.525.286-2.287.429-1.668.334-3.383.715-5.003 1.239-1.287.333-2.573.762-3.764 1.287-3.812 1.477-7.338 3.479-10.245 6.29-.095-1.096-.143-2.144-.143-3.145.048-1.906.191-3.717.477-5.528.095-.715.238-1.43.381-2.144.81-4.479 2.097-8.863 2.907-13.628 1.239-7.195 3.812-13.39 7.434-18.632.238-.381.476-.762.715-1.096 1.334-1.811 2.716-3.479 4.241-5.003.048-.095.095-.143.191-.191 11.865-12.199 30.021-18.108 47.461-19.728 1.048-.095 2.097-.191 3.145-.238.429 0 .81-.048 1.239-.095 3.336-.191 6.767-.381 10.102-.095 2.192.191 4.432.572 6.576 1.191.429.095.81.191 1.239.334.334.095.62.191.953.334 1.62.524 3.002 1.191 4.193 2.049.429.286.858.572 1.239.905 5.096 4.145 6.478 10.816 5.001 18.25z" fill="#cbe521"/><path d="m295.77 242.378c-1.811 9.244-6.052 17.965-11.865 25.351-4.003 5.051-8.864 9.578-14.677 12.294-5.861 2.716-12.58 3.431-18.822 1.811-8.767-2.335-17.917-3.669-26.923-2.716-9.054 1.001-18.536 3.479-25.064 9.721-.096-1.096-.143-2.144-.143-3.145 26.924-19.49 45.698-2.811 63.52-14.724 15.535-10.388 28.782-24.922 27.734-47.747 6.097 4.05 7.812 11.15 6.24 19.155z" fill="#1a0000" opacity=".1"/><path d="m333.562 227.246c.524 2.049.858 4.146 1.048 6.29-2.001-3.383-5.528-6.719-8.959-9.244 1.62 3.669 2.669 7.195 3.097 10.626.524 3.86.334 7.624-.62 11.389-.191.762-.429 1.573-.667 2.335-.143-.667-.334-1.334-.619-1.954-1.287-3.288-4.05-6.385-7.291-8.959 1.954 3.288 2.859 6.91 3.002 10.436.048.476.048.953.048 1.43 0 3.622-.715 7.148-1.811 10.293-.238.667-.476 1.287-.762 1.954-.191.476-.381.953-.572 1.43-1.858 4.432-4.146 8.911-6.862 13.39-1.715 2.907-3.669 5.813-5.813 8.72-1.191 1.668-2.478 3.288-3.765 4.908-.334.334-.62.715-.905 1.048-1.191 1.43-2.43 2.859-3.764 4.289-1.382 1.62-2.859 3.193-4.432 4.765.048-2.001-.048-4.003-.334-6.004-.191-1.668-.524-3.336-1.001-5.003-.238-1.001-.524-2.001-.905-2.954 0-.048 0-.095-.048-.095-1.001-2.859-2.43-5.575-4.336-8.148-.381-.667-.905-1.334-1.43-1.954-.524.238-1.048.476-1.477.762-3.526 2.097-4.908 6.004-3.05 10.245-2.24-2.668-4.05-5.48-5.385-8.387-.381-.762-.715-1.525-1.001-2.287-.858-2.192-1.382-4.384-1.668-6.576-.429-2.954-.286-5.861.381-8.482.524-2.097 1.43-4.003 2.668-5.718-2.859.191-6.195.953-8.72 2.335-1.525.762-2.716 1.811-3.336 3.002-1.048-2.669-6.91-7.005-14.963-12.247-1.334-.953-2.573-1.716-3.812-2.335-3.431-1.906-6.433-2.669-9.006-2.621-2.621.048-4.861.905-6.719 2.287-.762.524-1.477 1.144-2.097 1.858-1.572 1.716-2.811 3.812-3.812 6.004-1.763 4.05-2.573 8.339-2.811 11.103 0 .572-.048 1.144-.048 1.716-.048.62-.048.953-.048.953 0-.048-.048-.048-.048-.095-.143 2.764-.524 5.575-1.239 8.434-1.62-.953-3.717-2.001-5.766-3.002-1.715-.858-3.383-1.715-4.718-2.526-.095 2.144-.143 4.289-.238 6.433-.048.858-.095 1.668-.143 2.525 0 1.001-.095 1.954-.143 2.954-.048 1.382-.143 2.716-.238 4.05 0 .381 0 .715-.048 1.048-.191 3.383-.429 6.767-.715 10.15-.143 1.906-.286 3.812-.476 5.766-.81-1.525-1.906-2.811-3.24-3.86-1.191-1.001-2.621-1.763-4.146-2.24-.667-.191-1.334-.381-2.001-.477.238.858.476 1.763.667 2.621v.048c.238 1.001.429 1.954.572 2.954 1.191 7.195.858 14.724-.858 22.015-1.096 4.86-2.811 9.673-5.051 14.2.191-2.764-1.239-5.528-3.145-7.624-1.001-1.096-2.144-2.049-3.24-2.669-2.669 9.149-5.48 17.393-9.244 24.97-1.096-2.097-2.049-4.241-2.764-6.481-2.764-8.387-3.622-17.393-2.573-26.208.905-7.195 3.097-14.057 6.528-20.3-5.623 4.003-10.055 9.149-11.198 15.82-3.907-15.439-6.195-31.831-2.287-47.271 3.24-12.58 11.293-24.493 22.539-30.545-4.146-.143-8.053 1.001-10.34 4.432 4.718-17.155 20.729-29.782 38.121-33.404 17.393-3.621 30.866.903 34.518 2.037-.191.286-1.705-4.013 4.949-6.522 24.5-8.291 24.254 1.848 26.399 2.468 4.648-3.4 14.306 2.445 17.128 5.267 10.461-3.271 21.925-3.397 32.324.039 1.239.429 2.43.858 3.622 1.382.524.953.953 1.858 1.334 2.811-1.763-2.144-5.385-3.812-7.862-4.289 2.527 4.863 4.481 9.628 5.625 14.489z" fill="#1a0000" opacity=".1"/><path d="m468.222 222.603-4.289 2.192-6.004 3.097s-25.875-90.11-96.352-116.127c-1.906-.715-3.86-1.382-5.862-2.001-74.909-23.064-64.568 30.926-74.099 95.256v.048c-.428 1.668-1.525 2.716-2.954 3.193h-.048c-3.621 1.287-9.149-.953-9.244-5.003 0-.048 0-.048 0-.095 3.479-43.363-7.148-137.904 86.345-107.693 8.673 2.811 16.678 6.195 24.112 9.959 72.717 37.357 88.395 117.174 88.395 117.174z" fill="#7bba0d"/><path d="m361.577 111.765c-1.906-.715-3.86-1.382-5.862-2.001-74.909-23.064-64.568 30.926-74.099 95.256v.048c3.526.81 6.957 1.906 10.055 3.193 11.532 4.908 13.866 15.725.143 15.106-.095-.095-.143-.143-.143-.143 2.43-6.481-6.29-12.675-13.009-14.963h-.048s.095-1.382.239-3.812c.572-10.96 2.43-42.696 4.718-57.182 2.811-17.679 13.104-38.312 25.446-43.268 10.293-4.147 29.64-4.576 52.56 7.766z" fill="#1a0000" opacity=".1"/><path d="m468.222 222.603-4.289 2.192c-4.955-16.964-16.345-51.321-31.021-66.045-13.438-13.39-30.354-35.215-53.084-53.322 72.716 37.358 88.394 117.175 88.394 117.175z" fill="#1a0000" opacity=".1"/><path d="m297.66 137.911c3.204 6.235 5.616 12.43 6.819 19.482-2.06-3.055-5.348-5.802-8.447-7.762 4.093 8.088 5.622 15.982 4.707 24.4-1.376-3.924-4.602-7.251-8.325-9.737 4.531 6.52 5.404 15.225 4.648 22.384-1.714 14.641-7.109 29.716-17.821 43.635-.988-8.187-4.52-16.41-11.189-23.005-4.261 2.028-5.89 6.244-3.316 10.767-9.779-9.613-12.655-21.966-7.832-30.07-4.271.563-9.633 2.618-11.012 5.712-1.146-2.509-6.959-6.493-14.821-11.351-20.368-14.259-27.735 6.142-29.296 13.249-.064.486-.179.965-.244 1.449-.122.518-.161.8-.161.8.005-.04-.045-.046-.04-.086-.488 2.305-1.264 4.602-2.441 6.872-2.969-1.828-7.698-4.037-10.563-5.902-2.367 8.786-5.227 16.98-9.081 25.265-1.278-2.95-4.593-5.387-9.048-6.594.852 10.727-5.69 21.502-16.637 30.246 1.451-3.122-1.227-6.811-4.198-8.638-7.326 9.317-14.054 17.759-22.269 25.92 1.561-4.591 1.519-9.765.639-14.013-5.665 11.26-12.834 19.862-21.836 26.895 2.576-4.347 2.984-9.499 2.322-14.116-2.434 8.945-9.318 17.068-16.159 22.015-9.785 8.111-18.112 14.157-29.789 18.169-3-11.442-2.452-23.25-3.743-35.807-.712-7.913-.488-18.466 3.055-26.364-3.114 2.717-5.799 6.604-6.688 11.358-1.615-11.23-.88-22.323 2.659-34.262-2.904 2.392-5.933 6.066-7.768 10.299.839-11.252 3.311-21.642 7.159-32.92-2.082-.592-5.358.281-7.088 3.368 3.676-12.674 10.521-24.198 18.99-31.318-1.534-1.666-3.873-1.795-6.303-.447 6.168-7.846 12.822-14.758 20.503-21.416-1.976-.314-4.365-1.3-6.239-1.612 2.283-2.303 4.739-4.347 7.23-6.171.048 0 .099-.043.099-.043.864-.607 1.72-1.128 2.626-1.647 13.269-7.898 23.22-18.12 18.087-23.376-8.39-2.901-15.137-4.723-18.595-3.899 3.139-2.425 4.309-6.396 3.976-9.07-7.779 6.98-21.036 12.786-32.322 13.492 4.835-1.475 8.606-5.13 9.674-8.796-7.815.319-16.191 3.567-23.803 8.404 9.985-15.456 22.326-27.83 35.845-36.961 6.873-4.291 16.264-8.098 25.212-8.203-4.236-1.278-9.148-1.795-13.798-.739 8.492-4.733 17.758-7.329 28.968-7.901-3.72-1.327-8.395-2.464-12.793-2.544 8.679-2.187 17.299-2.893 26.732-2.921-1.19-1.455-4.005-3.304-7.016-3.755 9.475-.426 19.763 1.081 28.675 4.239-.435-1.365-2.065-2.783-4.269-3.813 7.182 1.392 13.866 2.979 20.691 4.873-1.178-1.135-2.455-2.659-3.594-3.739 8.268 1.649 16.673 5.295 21.773 9.5.35-1.492-.494-3.138-1.99-4.734 7.851 4.517 13.248 10.119 17.863 15.746 1.012 1.234 5.691 4.75 10.558 8.25 7.078 5.052 15.359 9.535 24.121 12.992 6.107 2.409 12.295 4.707 14.224 4.975 1.343.173 2.687.345 4.071.559 7.189 1.032 14.381 2.644 20.94 5.563-2.48-.401-4.81-.412-6.587.298 6.635 1.774 13.367 5.741 17.54 10.187-1.67-.344-3.948-.591-5.644-.923 4.049 3.506 7.811 7.059 11.528 10.947-1.957-1.022-4.161-1.494-5.973-1.253 6.401 4.343 11.28 10.294 13.742 16.675-1.55-1.816-4.753-2.947-6.938-3.077z" fill="#006837"/><path d="m297.66 137.911c3.204 6.235 5.616 12.43 6.819 19.482-2.06-3.055-5.348-5.802-8.447-7.762 4.093 8.088 5.622 15.982 4.707 24.4-1.376-3.924-4.602-7.251-8.325-9.737 4.531 6.52 5.404 15.225 4.648 22.384-1.714 14.641-7.109 29.716-17.821 43.635-.988-8.187-4.52-16.41-11.189-23.005-4.261 2.028-5.89 6.244-3.316 10.767-9.779-9.613-12.655-21.966-7.832-30.07-4.271.563-9.633 2.618-11.012 5.712-1.146-2.509-6.959-6.493-14.821-11.351-20.368-14.259-27.735 6.142-29.296 13.249-.064.486-.179.965-.244 1.449-.122.518-.161.8-.161.8.005-.04-.045-.046-.04-.086-.488 2.305-1.264 4.602-2.441 6.872-2.969-1.828-7.698-4.037-10.563-5.902-2.367 8.786-5.227 16.98-9.081 25.265-1.278-2.95-4.593-5.387-9.048-6.594.852 10.727-5.69 21.502-16.637 30.246 1.451-3.122-1.227-6.811-4.198-8.638-7.326 9.317-14.054 17.759-22.269 25.92 1.561-4.591 1.519-9.765.639-14.013-5.665 11.26-12.834 19.862-21.836 26.895 2.576-4.347 2.984-9.499 2.322-14.116-2.434 8.945-9.318 17.068-16.159 22.015-9.785 8.111-18.123 14.144-29.789 18.169 30.62-39.309 43.27-80.692 73.647-117.609 26.583-39.042 59.945-50.185 86.899-34.626 26.41 14.332 68.183-22.912 36.909-51.443-.241-.21-.436-.468-.674-.724 7.189 1.032 14.381 2.644 20.94 5.563-2.48-.401-4.81-.412-6.587.298 6.635 1.774 13.367 5.741 17.54 10.187-1.67-.344-3.948-.591-5.644-.923 4.049 3.506 7.811 7.059 11.528 10.947-1.957-1.022-4.161-1.494-5.973-1.253 6.401 4.343 11.28 10.294 13.742 16.675-1.549-1.817-4.752-2.948-6.937-3.078z" fill="#1a0000" opacity=".1"/><path d="m222.902 85.103c30.506-23.568 88.867-35.315 118.16 8.859 11.768 6.709 13.349 7.429 18.795 6.111 5.446-1.319-5.543-6.42-11.447-9.745-5.904-3.326-20.98-30.707-62.016-31.182-39.761.131-57.017 12.652-85.575 35.342-37.857 30.079-70.683 59.168-106.025 111.982-42.361 63.303-4.017 15.414 10.722-4.633 15.765-18.717 30.349-41.041 59.962-69.624 29.993-28.951 57.424-47.11 57.424-47.11z" fill="#498f29"/></g></svg>